<mxfile host="app.diagrams.net" modified="2020-12-10T06:01:03.489Z" agent="5.0 (Macintosh; Intel Mac OS X 10_15_7) AppleWebKit/537.36 (KHTML, like Gecko) Chrome/86.0.4240.198 Safari/537.36" etag="7lAlTg0fqrj2BzjtUlvr" version="14.0.0" type="github">
  <diagram id="nVn83R51v-PZFRv0U8iR" name="Page-1">
    <mxGraphModel dx="2066" dy="1096" grid="1" gridSize="10" guides="1" tooltips="1" connect="1" arrows="1" fold="1" page="1" pageScale="1" pageWidth="1169" pageHeight="827" math="0" shadow="0">
      <root>
        <mxCell id="0" />
        <mxCell id="1" parent="0" />
        <mxCell id="y7TWxrTfRzAMhHeux6hJ-6" value="" style="edgeStyle=orthogonalEdgeStyle;rounded=0;orthogonalLoop=1;jettySize=auto;html=1;fontFamily=Comic Sans MS;fontSize=18;shape=link;" edge="1" parent="1" source="y7TWxrTfRzAMhHeux6hJ-1" target="y7TWxrTfRzAMhHeux6hJ-5">
          <mxGeometry relative="1" as="geometry" />
        </mxCell>
        <mxCell id="y7TWxrTfRzAMhHeux6hJ-1" value="Widget Tree" style="rounded=1;whiteSpace=wrap;html=1;strokeWidth=2;fillWeight=4;hachureGap=8;hachureAngle=45;fillColor=#dae8fc;sketch=1;strokeColor=#6c8ebf;fontFamily=Comic Sans MS;fontSize=18;" vertex="1" parent="1">
          <mxGeometry x="200" y="214" width="120" height="60" as="geometry" />
        </mxCell>
        <mxCell id="y7TWxrTfRzAMhHeux6hJ-8" value="" style="edgeStyle=orthogonalEdgeStyle;rounded=0;orthogonalLoop=1;jettySize=auto;html=1;fontFamily=Comic Sans MS;fontSize=18;shape=link;" edge="1" parent="1" source="y7TWxrTfRzAMhHeux6hJ-3" target="y7TWxrTfRzAMhHeux6hJ-7">
          <mxGeometry relative="1" as="geometry" />
        </mxCell>
        <mxCell id="y7TWxrTfRzAMhHeux6hJ-3" value="Element Tree" style="rounded=1;whiteSpace=wrap;html=1;strokeWidth=2;fillWeight=4;hachureGap=8;hachureAngle=45;fillColor=#d5e8d4;sketch=1;strokeColor=#82b366;fontFamily=Comic Sans MS;fontSize=18;fontStyle=1" vertex="1" parent="1">
          <mxGeometry x="524.5" y="214" width="120" height="60" as="geometry" />
        </mxCell>
        <mxCell id="y7TWxrTfRzAMhHeux6hJ-10" value="" style="edgeStyle=orthogonalEdgeStyle;rounded=0;orthogonalLoop=1;jettySize=auto;html=1;fontFamily=Comic Sans MS;fontSize=18;shape=link;" edge="1" parent="1" source="y7TWxrTfRzAMhHeux6hJ-4" target="y7TWxrTfRzAMhHeux6hJ-9">
          <mxGeometry relative="1" as="geometry" />
        </mxCell>
        <mxCell id="y7TWxrTfRzAMhHeux6hJ-4" value="RenderObject Tree" style="rounded=1;whiteSpace=wrap;html=1;strokeWidth=2;fillWeight=4;hachureGap=8;hachureAngle=45;fillColor=#ffe6cc;sketch=1;strokeColor=#d79b00;fontFamily=Comic Sans MS;fontSize=18;" vertex="1" parent="1">
          <mxGeometry x="795" y="214" width="160" height="60" as="geometry" />
        </mxCell>
        <mxCell id="y7TWxrTfRzAMhHeux6hJ-5" value="RenderObjectToWidgetAdapter" style="rounded=1;whiteSpace=wrap;html=1;strokeWidth=2;fillWeight=4;hachureGap=8;hachureAngle=45;fillColor=#dae8fc;sketch=1;strokeColor=#6c8ebf;fontFamily=Comic Sans MS;fontSize=18;" vertex="1" parent="1">
          <mxGeometry x="110" y="354" width="300" height="60" as="geometry" />
        </mxCell>
        <mxCell id="y7TWxrTfRzAMhHeux6hJ-7" value="RenderObjectToWidgetElement" style="rounded=1;whiteSpace=wrap;html=1;strokeWidth=2;fillWeight=4;hachureGap=8;hachureAngle=45;fillColor=#d5e8d4;sketch=1;strokeColor=#82b366;fontFamily=Comic Sans MS;fontSize=18;fontStyle=1" vertex="1" parent="1">
          <mxGeometry x="442" y="354" width="285" height="60" as="geometry" />
        </mxCell>
        <mxCell id="y7TWxrTfRzAMhHeux6hJ-9" value="_pipelineOwner.rootNode" style="rounded=1;whiteSpace=wrap;html=1;strokeWidth=2;fillWeight=4;hachureGap=8;hachureAngle=45;fillColor=#ffe6cc;sketch=1;strokeColor=#d79b00;fontFamily=Comic Sans MS;fontSize=18;" vertex="1" parent="1">
          <mxGeometry x="760" y="354" width="230" height="60" as="geometry" />
        </mxCell>
      </root>
    </mxGraphModel>
  </diagram>
</mxfile>
